HIERARCHY
ROOT joint_Root
{
	OFFSET 0.0 0.0 0.0
	CHANNELS 6 Xposition Yposition Zposition Zrotation Xrotation Yrotation 
	JOINT Hips
	{
		OFFSET 4.5925 91.4895 -427.239
		CHANNELS 6 Xposition Yposition Zposition Zrotation Xrotation Yrotation 
		JOINT Spine
		{
			OFFSET 15.7357 0.0 0.0
			CHANNELS 6 Xposition Yposition Zposition Zrotation Xrotation Yrotation 
			JOINT Chest
			{
				OFFSET 8.98455 -0.406207 0.0
				CHANNELS 6 Xposition Yposition Zposition Zrotation Xrotation Yrotation 
				JOINT Neck
				{
					OFFSET 16.3773 0.0 0.0
					CHANNELS 6 Xposition Yposition Zposition Zrotation Xrotation Yrotation 
					JOINT Head
					{
						OFFSET 6.45672 0.0 0.0
						CHANNELS 6 Xposition Yposition Zposition Zrotation Xrotation Yrotation 
						End Site
						{
							OFFSET 0.0 0.0 0.0
						}
					}
				}
				JOINT Shoulder_L
				{
					OFFSET 12.9942 -0.242716 4.98039
					CHANNELS 6 Xposition Yposition Zposition Zrotation Xrotation Yrotation 
					JOINT UpperArm_L
					{
						OFFSET 5.34809 0.0 0.0
						CHANNELS 6 Xposition Yposition Zposition Zrotation Xrotation Yrotation 
						JOINT LowerArm_L
						{
							OFFSET 24.3286 1.87007e-05 0.0
							CHANNELS 6 Xposition Yposition Zposition Zrotation Xrotation Yrotation 
							JOINT Hand_L
							{
								OFFSET 22.2916 0.0 0.0
								CHANNELS 6 Xposition Yposition Zposition Zrotation Xrotation Yrotation 
								End Site
								{
									OFFSET 0.0 0.0 0.0
								}
							}
						}
					}
				}
				JOINT Shoulder_R
				{
					OFFSET 12.9945 -0.242716 -4.98039
					CHANNELS 6 Xposition Yposition Zposition Zrotation Xrotation Yrotation 
					JOINT UpperArm_R
					{
						OFFSET -5.34813 0.0 0.0
						CHANNELS 6 Xposition Yposition Zposition Zrotation Xrotation Yrotation 
						JOINT LowerArm_R
						{
							OFFSET -24.3289 0.000322201 0.0
							CHANNELS 6 Xposition Yposition Zposition Zrotation Xrotation Yrotation 
							JOINT Hand_R
							{
								OFFSET -22.2915 -0.000108084 0.0
								CHANNELS 6 Xposition Yposition Zposition Zrotation Xrotation Yrotation 
								End Site
								{
									OFFSET 0.0 0.0 0.0
								}
							}
						}
					}
				}
			}
		}
		JOINT UpperLeg_L
		{
			OFFSET -2.19248 -6.46944 0.0
			CHANNELS 6 Xposition Yposition Zposition Zrotation Xrotation Yrotation 
			JOINT LowerLeg_L
			{
				OFFSET 39.0811 0.0 -1.23785e-05
				CHANNELS 6 Xposition Yposition Zposition Zrotation Xrotation Yrotation 
				JOINT Foot_L
				{
					OFFSET 40.9854 0.0 -1.26872e-05
					CHANNELS 6 Xposition Yposition Zposition Zrotation Xrotation Yrotation 
					JOINT Toes_L
					{
						OFFSET 11.7543 0.0 0.0
						CHANNELS 6 Xposition Yposition Zposition Zrotation Xrotation Yrotation 
						End Site
						{
							OFFSET 0.0 0.0 0.0
						}
					}
				}
			}
		}
		JOINT UpperLeg_R
		{
			OFFSET -2.19251 6.46944 0.0
			CHANNELS 6 Xposition Yposition Zposition Zrotation Xrotation Yrotation 
			JOINT LowerLeg_R
			{
				OFFSET -39.0811 -0.00228153 -0.0401928
				CHANNELS 6 Xposition Yposition Zposition Zrotation Xrotation Yrotation 
				JOINT Foot_R
				{
					OFFSET -40.9854 0.0 0.0
					CHANNELS 6 Xposition Yposition Zposition Zrotation Xrotation Yrotation 
					JOINT Toes_R
					{
						OFFSET -11.7543 0.0 0.0
						CHANNELS 6 Xposition Yposition Zposition Zrotation Xrotation Yrotation 
						End Site
						{
							OFFSET 0.0 0.0 0.0
						}
					}
				}
			}
		}
	}
}
MOTION
Frames:	4
Frame Time:	0.0333333
0.000000 0.000000 0.000000 0.000000 0.000000 -0.000000 -1.558580 92.249600 0.835887 89.519900 -5.949270 3.181360 15.735700 0.000005 -0.000001 68.130100 85.655700 -64.819300 8.984550 -0.406207 -0.000000 0.407199 -3.447970 6.631050 16.377300 -0.000001 -0.000001 5.715060 0.405534 -3.432750 6.456720 -0.000001 -0.000000 1.949440 0.400064 -0.638357 12.994200 -0.242716 4.980390 -84.171900 -11.993200 -63.839100 5.348090 -0.000007 -0.000001 -47.209900 -67.473900 -87.683900 24.328600 0.000019 0.000005 3.719610 3.545820 -46.430100 22.291600 -0.000001 0.000005 16.802500 5.376160 -2.177980 12.994500 -0.242716 -4.980390 87.425000 9.484020 -74.733500 -5.348130 -0.000001 -0.000004 -55.195600 23.186100 0.277803 -24.328900 0.000322 -0.000009 1.367920 2.660160 -27.244500 -22.291500 -0.000108 -0.000004 17.248600 5.447630 -4.555210 -2.192480 -6.469440 -0.000000 -174.494000 -17.561000 -0.090122 39.081100 -0.000007 -0.000012 -0.107014 0.290580 20.217600 40.985400 -0.000006 -0.000013 -0.559385 8.688200 -66.230600 11.754300 -0.000000 0.000003 -0.000146 -0.001421 -16.631600 -2.192510 6.469440 -0.000001 175.400000 24.335500 179.993000 -39.081100 -0.002282 -0.040193 -0.093451 0.262711 20.221900 -40.985400 0.000008 0.000006 4.220900 20.943600 -67.256000 -11.754300 -0.000006 -0.000006 -0.339659 -0.412884 -16.311500
0.000000 0.000000 0.000000 0.000000 0.000000 -0.000000 -1.694990 92.228200 0.685612 89.532800 -5.739450 3.396660 15.735700 0.000005 -0.000001 69.585200 85.578900 -66.393500 8.984550 -0.406207 -0.000000 0.621962 -3.282070 6.397900 16.377300 -0.000001 -0.000001 5.452130 0.341430 -3.344200 6.456720 -0.000001 -0.000000 1.809030 0.424712 -0.845178 12.994200 -0.242716 4.980390 -84.643100 -11.163600 -64.158500 5.348090 -0.000007 -0.000001 -44.435100 -65.594900 -81.556500 24.328600 0.000019 0.000005 3.306780 2.422400 -53.815300 22.291600 -0.000001 0.000005 16.991800 5.376350 -2.184050 12.994500 -0.242716 -4.980390 87.423400 9.455210 -74.680600 -5.348130 -0.000001 -0.000004 -55.748400 23.082700 0.043566 -24.328900 0.000322 -0.000009 1.293800 2.513850 -27.264300 -22.291500 -0.000108 -0.000004 17.398900 5.446840 -4.526780 -2.192480 -6.469440 -0.000000 -174.396000 -17.246300 -0.138398 39.081100 -0.000007 -0.000012 -0.107535 0.288039 20.472400 40.985400 -0.000006 -0.000013 -0.632053 8.680020 -66.220500 11.754300 -0.000000 0.000003 -0.000139 -0.001366 -16.629600 -2.192510 6.469440 -0.000001 175.377000 24.330100 -179.919000 -39.081100 -0.002282 -0.040193 -0.107514 0.298864 20.347500 -40.985400 0.000008 0.000006 3.717720 20.874500 -67.047000 -11.754300 -0.000006 -0.000006 -0.048969 -0.059374 -16.537400
0.000000 0.000000 0.000000 0.000000 0.000000 -0.000000 -1.814000 92.240600 0.488668 89.564100 -5.497870 3.573370 15.735700 0.000005 -0.000001 70.897800 85.494400 -67.821500 8.984550 -0.406207 -0.000000 0.842191 -3.133530 6.172060 16.377300 -0.000001 -0.000001 5.045750 0.330395 -3.196930 6.456720 -0.000001 -0.000000 1.606730 0.620687 -1.156080 12.994200 -0.242716 4.980390 -85.282000 -9.993130 -64.564300 5.348090 -0.000007 -0.000001 -40.433400 -62.889500 -73.238800 24.328600 0.000019 0.000005 3.285940 1.663050 -63.185500 22.291600 -0.000001 0.000005 17.250700 5.367300 -1.903490 12.994500 -0.242716 -4.980390 87.396700 9.470000 -74.552000 -5.348130 -0.000001 -0.000004 -56.146900 23.688600 -0.607914 -24.328900 0.000322 -0.000009 1.021720 2.030140 -26.746100 -22.291500 -0.000108 -0.000004 17.574900 5.446680 -4.521360 -2.192480 -6.469440 -0.000000 -174.318000 -17.067700 -0.142756 39.081100 -0.000007 -0.000012 -0.109716 0.293716 20.482900 40.985400 -0.000006 -0.000013 -0.704849 8.764970 -66.044000 11.754300 -0.000000 0.000003 -0.000155 -0.001497 -16.634400 -2.192510 6.469440 -0.000001 175.417000 24.367000 -179.852000 -39.081100 -0.002282 -0.040193 -0.108921 0.302138 20.379700 -40.985400 0.000008 0.000006 3.709590 20.700400 -66.961600 -11.754300 -0.000006 -0.000006 -0.000003 -0.000041 -16.575500
0.000000 0.000000 0.000000 0.000000 0.000000 -0.000000 -1.937860 92.239700 0.293062 89.607100 -5.202920 3.662740 15.735700 0.000005 -0.000001 72.230200 85.428200 -69.262400 8.984550 -0.406207 -0.000000 1.026790 -2.963830 5.958370 16.377300 -0.000001 -0.000001 4.638820 0.341675 -3.040670 6.456720 -0.000001 -0.000000 1.260750 0.755847 -1.459110 12.994200 -0.242716 4.980390 -85.974700 -8.773580 -65.233900 5.348090 -0.000007 -0.000001 -35.973400 -58.939300 -63.130100 24.328600 0.000019 0.000005 3.367400 0.972328 -73.912800 22.291600 -0.000001 0.000005 17.591900 5.360120 -1.683370 12.994500 -0.242716 -4.980390 87.395800 9.432670 -74.489600 -5.348130 -0.000001 -0.000004 -56.668500 24.274500 -1.244250 -24.328900 0.000322 -0.000009 0.965651 1.970690 -26.136700 -22.291500 -0.000108 -0.000004 17.637000 5.445100 -4.465160 -2.192480 -6.469440 -0.000000 -174.270000 -17.030900 -0.290230 39.081100 -0.000007 -0.000012 -0.108536 0.288818 20.596000 40.985400 -0.000006 -0.000013 -0.720898 9.028740 -65.918200 11.754300 -0.000000 0.000003 -0.000142 -0.001390 -16.630500 -2.192510 6.469440 -0.000001 175.477000 24.577700 -179.953000 -39.081100 -0.002282 -0.040193 -0.107958 0.296667 20.560900 -40.985400 0.000008 0.000006 3.830530 20.555800 -66.984000 -11.754300 -0.000006 -0.000006 -0.000002 -0.000027 -16.574900
